<svg width="35" height="35" viewBox="0 0 35 35" fill="none" xmlns="http://www.w3.org/2000/svg">
<path fill-rule="evenodd" clip-rule="evenodd" d="M8.75002 2.91666C5.52836 2.91666 2.91669 5.52833 2.91669 8.74999V26.25C2.91669 29.4716 5.52836 32.0833 8.75002 32.0833H26.25C29.4716 32.0833 32.0834 29.4716 32.0834 26.25V8.74999C32.0834 5.52833 29.4716 2.91666 26.25 2.91666H8.75002ZM5.83335 8.74999C5.83335 7.13916 7.13919 5.83332 8.75002 5.83332H26.25C27.8609 5.83332 29.1667 7.13916 29.1667 8.74999V26.25C29.1667 27.8609 27.8609 29.1667 26.25 29.1667H8.75002C7.13919 29.1667 5.83335 27.8609 5.83335 26.25V8.74999ZM13.125 16.0417C13.125 15.2362 12.4721 14.5833 11.6667 14.5833C10.8613 14.5833 10.2084 15.2362 10.2084 16.0417V24.7917C10.2084 25.5971 10.8613 26.25 11.6667 26.25C12.4721 26.25 13.125 25.5971 13.125 24.7917V16.0417ZM13.8542 10.9375C13.8542 12.1456 12.8748 13.125 11.6667 13.125C10.4586 13.125 9.47919 12.1456 9.47919 10.9375C9.47919 9.72936 10.4586 8.74999 11.6667 8.74999C12.8748 8.74999 13.8542 9.72936 13.8542 10.9375ZM17.5 14.5833C17.9951 14.5833 18.4326 14.8301 18.6963 15.2073C19.4438 14.8024 20.2761 14.5833 21.1459 14.5833C24.295 14.5833 26.25 17.3918 26.25 19.7916V19.8027V19.8136V19.8247V19.8358V19.8469V19.8581V19.8692V19.8804V19.8917V19.9029V19.9143V19.9255V19.9369V19.9482V19.9596V19.971V19.9824V19.9939V20.0054V20.0168V20.0284V20.04V20.0515V20.0632V20.0747V20.0863V20.098V20.1098V20.1215V20.1333V20.145V20.1568V20.1686V20.1804V20.1924V20.2042V20.2161V20.2279V20.2399V20.2519V20.264V20.2759V20.2879V20.3V20.3121V20.3241V20.3362V20.3484V20.3605V20.3726V20.3849V20.3971V20.4092V20.4215V20.4337V20.446V20.4584V20.4706V20.483V20.4953V20.5077V20.5201V20.5324V20.5448V20.5572V20.5696V20.5822V20.5946V20.6071V20.6197V20.6322V20.6446V20.6573V20.6698V20.6824V20.6949V20.7076V20.7201V20.7328V20.7454V20.7581V20.7707V20.7834V20.7961V20.8088V20.8215V20.8343V20.847V20.8598V20.8725V20.8854V20.8981V20.9109V20.9237V20.9366V20.9494V20.9622V20.9751V20.9879V21.0007V21.0136V21.0265V21.0394V21.0523V21.0652V21.0782V21.091V21.104V21.1169V21.1299V21.1428V21.1557V21.1687V21.1817V21.1947V21.2077V21.2206V21.2336V21.2467V21.2597V21.2727V21.2857V21.2988V21.3118V21.3248V21.3379V21.3509V21.364V21.377V21.3899V21.4031V21.4162V21.4292V21.4423V21.4553V21.4684V21.4815V21.4945V21.5076V21.5206V21.5337V21.5469V21.5598V21.573V21.5861V21.5991V21.6122V21.6253V21.6384V21.6514V21.6646V21.6777V21.6907V21.7038V21.7169V21.7299V21.743V21.756V21.7691V21.7821V21.7952V21.8083V21.8213V21.8344V21.8474V21.8604V21.8735V21.8865V21.8996V21.9126V21.9256V21.9386V21.9517V21.9647V21.9777V21.9906V22.0036V22.0166V22.0296V22.0426V22.0555V22.0685V22.0815V22.0943V22.1073V22.1203V22.1331V22.1461V22.1589V22.1719V22.1847V22.1977V22.2106V22.2234V22.2362V22.2491V22.2619V22.2747V22.2876V22.3004V22.3132V22.3259V22.3387V22.3514V22.3643V22.3769V22.3896V22.4023V22.415V22.4277V22.4404V22.4531V22.4658V22.4784V22.491V22.5037V22.5162V22.5288V22.5414V22.554V22.5665V22.5789V22.5915V22.604V22.6166V22.6289V22.6413V22.6539V22.6663V22.6787V22.6911V22.7035V22.7157V22.7281V22.7404V22.7528V22.765V22.7773V22.7895V22.8018V22.814V22.8261V22.8384V22.8505V22.8626V22.8747V22.8868V22.8989V22.911V22.9229V22.9351V22.947V22.959V22.9709V22.9829V22.9948V23.0067V23.0186V23.0304V23.0422V23.0541V23.0659V23.0775V23.0893V23.101V23.1127V23.1243V23.136V23.1477V23.1592V23.1707V23.1824V23.1939V23.2053V23.2168V23.2283V23.2397V23.2511V23.2624V23.2738V23.2851V23.2964V23.3077V23.3189V23.3301V23.3413V23.3524V23.3637V23.3747V23.3858V23.3968V23.4078V23.4188V23.4297V23.4407V23.4516V23.4625V23.4733V23.4841V23.4949V23.5057V23.5163V23.5271V23.5378V23.5484V23.5589V23.5696V23.5801V23.5906V23.6011V23.6116V23.6219V23.6323V23.6426V23.653V23.6632V23.6734V23.6836V23.6938V23.704V23.7141V23.7242V23.7342V23.7443V23.7542V23.7641V23.774V23.7839V23.7937V23.8035V23.8133V23.823V23.8328V23.8424V23.8521V23.8615V23.8712V23.8806V23.8901V23.8994V23.9089V23.9183V23.9276V23.9368V23.9461V23.9553V23.9645V23.9735V23.9826V23.9916V24.0007V24.0097V24.0186V24.0275V24.0362V24.0451V24.0539V24.0625V24.0712V24.0798V24.0884V24.0971V24.1055V24.114V24.1224V24.1307V24.1391V24.1474V24.1557V24.1638V24.172V24.1802V24.1882V24.1962V24.2042V24.2121V24.2201V24.2279V24.2357V24.2435V24.2512V24.2589V24.2665V24.2741V24.2817V24.2891V24.2966V24.304V24.3113V24.3186V24.3259V24.333V24.3402V24.3473V24.3543V24.3613V24.3683V24.3752V24.382V24.3889V24.3956V24.4023V24.409V24.4156V24.4221V24.4287V24.4351V24.4415V24.4479V24.4542V24.4605V24.4666V24.4727V24.4788V24.485V24.4909V24.4968V24.5028V24.5086V24.5143V24.5201V24.5258V24.5313V24.5369V24.5424V24.5478V24.5532V24.5586V24.5639V24.5691V24.5744V24.5795V24.5846V24.5895V24.5945V24.5994V24.6043V24.6091V24.6137V24.6184V24.6231V24.6276V24.6321V24.6365V24.6409V24.6452V24.6495V24.6537V24.6579V24.662V24.6659V24.6699V24.6738V24.6778V24.6816V24.6852V24.6888V24.6925V24.696V24.6995V24.703V24.7063V24.7097V24.7129V24.716V24.7192V24.7222V24.7252V24.7281V24.731V24.7338V24.7365V24.7392V24.7418V24.7444V24.7469V24.7492V24.7516V24.7539V24.7561V24.7583V24.7603V24.7623V24.7644V24.7663V24.768V24.7698V24.7715V24.7731V24.7747V24.7762V24.779V24.7814V24.7838V24.7857V24.7874V24.7893V24.7911C26.25 25.5965 25.5971 26.25 24.7917 26.25C23.9862 26.25 23.3334 25.5971 23.3334 24.7917V24.7899V24.7882V24.7866V24.7848V24.7826V24.7803V24.7777V24.7747V24.7731V24.7715V24.7698V24.768V24.7663V24.7644V24.7623V24.7603V24.7583V24.7561V24.7539V24.7516V24.7492V24.7469V24.7444V24.7418V24.7392V24.7365V24.7338V24.731V24.7281V24.7252V24.7222V24.7192V24.716V24.7129V24.7097V24.7063V24.703V24.6995V24.696V24.6925V24.6888V24.6852V24.6816V24.6778V24.6738V24.6699V24.6659V24.662V24.6579V24.6537V24.6495V24.6452V24.6409V24.6365V24.6321V24.6276V24.6231V24.6184V24.6137V24.6091V24.6043V24.5994V24.5945V24.5895V24.5846V24.5795V24.5744V24.5691V24.5639V24.5586V24.5532V24.5478V24.5424V24.5369V24.5313V24.5258V24.5201V24.5143V24.5086V24.5028V24.4968V24.4909V24.485V24.4788V24.4727V24.4666V24.4605V24.4542V24.4479V24.4415V24.4351V24.4287V24.4221V24.4156V24.409V24.4023V24.3956V24.3889V24.382V24.3752V24.3683V24.3613V24.3543V24.3473V24.3402V24.333V24.3259V24.3186V24.3113V24.304V24.2966V24.2891V24.2817V24.2741V24.2665V24.2589V24.2512V24.2435V24.2357V24.2279V24.2201V24.2121V24.2042V24.1962V24.1882V24.1802V24.172V24.1638V24.1557V24.1474V24.1391V24.1307V24.1224V24.114V24.1055V24.0971V24.0884V24.0798V24.0712V24.0625V24.0539V24.0451V24.0362V24.0275V24.0186V24.0097V24.0007V23.9916V23.9826V23.9735V23.9645V23.9553V23.9461V23.9368V23.9276V23.9183V23.9089V23.8994V23.8901V23.8806V23.8712V23.8615V23.8521V23.8424V23.8328V23.823V23.8133V23.8035V23.7937V23.7839V23.774V23.7641V23.7542V23.7443V23.7342V23.7242V23.7141V23.704V23.6938V23.6836V23.6734V23.6632V23.653V23.6426V23.6323V23.6219V23.6116V23.6011V23.5906V23.5801V23.5696V23.5589V23.5484V23.5378V23.5271V23.5163V23.5057V23.4949V23.4841V23.4733V23.4625V23.4516V23.4407V23.4297V23.4188V23.4078V23.3968V23.3858V23.3747V23.3637V23.3524V23.3413V23.3301V23.3189V23.3077V23.2964V23.2851V23.2738V23.2624V23.2511V23.2397V23.2283V23.2168V23.2053V23.1939V23.1824V23.1707V23.1592V23.1477V23.136V23.1243V23.1127V23.101V23.0893V23.0775V23.0659V23.0541V23.0422V23.0304V23.0186V23.0067V22.9948V22.9829V22.9709V22.959V22.947V22.9351V22.9229V22.911V22.8989V22.8868V22.8747V22.8626V22.8505V22.8384V22.8261V22.814V22.8018V22.7895V22.7773V22.765V22.7528V22.7404V22.7281V22.7157V22.7035V22.6911V22.6787V22.6663V22.6539V22.6413V22.6289V22.6166V22.604V22.5915V22.5789V22.5665V22.554V22.5414V22.5288V22.5162V22.5037V22.491V22.4784V22.4658V22.4531V22.4404V22.4277V22.415V22.4023V22.3896V22.3769V22.3643V22.3514V22.3387V22.3259V22.3132V22.3004V22.2876V22.2747V22.2619V22.2491V22.2362V22.2234V22.2106V22.1977V22.1847V22.1719V22.1589V22.1461V22.1331V22.1203V22.1073V22.0943V22.0815V22.0685V22.0555V22.0426V22.0296V22.0166V22.0036V21.9906V21.9777V21.9647V21.9517V21.9386V21.9256V21.9126V21.8996V21.8865V21.8735V21.8604V21.8474V21.8344V21.8213V21.8083V21.7952V21.7821V21.7691V21.756V21.743V21.7299V21.7169V21.7038V21.6907V21.6777V21.6646V21.6514V21.6384V21.6253V21.6122V21.5991V21.5861V21.573V21.5598V21.5469V21.5337V21.5206V21.5076V21.4945V21.4815V21.4684V21.4553V21.4423V21.4292V21.4162V21.4031V21.3899V21.377V21.364V21.3509V21.3379V21.3248V21.3118V21.2988V21.2857V21.2727V21.2597V21.2467V21.2336V21.2206V21.2077V21.1947V21.1817V21.1687V21.1557V21.1428V21.1299V21.1169V21.104V21.091V21.0782V21.0652V21.0523V21.0394V21.0265V21.0136V21.0007V20.9879V20.9751V20.9622V20.9494V20.9366V20.9237V20.9109V20.8981V20.8854V20.8725V20.8598V20.847V20.8343V20.8215V20.8088V20.7961V20.7834V20.7707V20.7581V20.7454V20.7328V20.7201V20.7076V20.6949V20.6824V20.6698V20.6573V20.6446V20.6322V20.6197V20.6071V20.5946V20.5822V20.5696V20.5572V20.5448V20.5324V20.5201V20.5077V20.4953V20.483V20.4706V20.4584V20.446V20.4337V20.4215V20.4092V20.3971V20.3849V20.3726V20.3605V20.3484V20.3362V20.3241V20.3121V20.3V20.2879V20.2759V20.264V20.2519V20.2399V20.2279V20.2161V20.2042V20.1924V20.1804V20.1686V20.1568V20.145V20.1333V20.1215V20.1098V20.098V20.0863V20.0747V20.0632V20.0515V20.04V20.0284V20.0168V20.0054V19.9939V19.9824V19.971V19.9596V19.9482V19.9369V19.9255V19.9143V19.9029V19.8917V19.8804V19.8692V19.8581V19.8469V19.8358V19.8247V19.8136V19.8027V19.7916C23.3334 18.6713 22.3717 17.5 21.1459 17.5C20.3815 17.5 19.5379 17.9155 18.9584 18.9045V18.9084V18.9235V18.9385V18.9535V18.9687V18.9837V18.9989V19.014V19.0293V19.0445V19.0597V19.075V19.0903V19.1056V19.1209V19.1362V19.1517V19.1672V19.1825V19.1979V19.2134V19.2288V19.2444V19.2599V19.2755V19.2911V19.3066V19.3223V19.3379V19.3535V19.3691V19.3849V19.4006V19.4162V19.432V19.4477V19.4635V19.4794V19.4951V19.511V19.5268V19.5427V19.5586V19.5745V19.5904V19.6063V19.6222V19.6382V19.6541V19.6701V19.686V19.7021V19.7181V19.7342V19.7502V19.7662V19.7823V19.7985V19.8145V19.8306V19.8467V19.8629V19.879V19.8952V19.9113V19.9275V19.9437V19.9599V19.9761V19.9923V20.0086V20.0248V20.041V20.0573V20.0735V20.0898V20.1062V20.1224V20.1387V20.155V20.1714V20.1876V20.2039V20.2202V20.2366V20.253V20.2694V20.2857V20.302V20.3184V20.3347V20.3512V20.3675V20.3838V20.4003V20.4167V20.4331V20.4495V20.4659V20.4823V20.4986V20.5151V20.5316V20.5479V20.5644V20.5807V20.5972V20.6135V20.63V20.6465V20.6628V20.6793V20.6956V20.7121V20.7286V20.7449V20.7614V20.7777V20.7942V20.8106V20.827V20.8434V20.8598V20.8762V20.8927V20.909V20.9255V20.9418V20.9583V20.9746V20.9909V21.0073V21.0238V21.0401V21.0564V21.0728V21.0891V21.1054V21.1218V21.1381V21.1544V21.1708V21.1871V21.2034V21.2196V21.2359V21.2523V21.2685V21.2848V21.301V21.3173V21.3335V21.3497V21.3659V21.3821V21.3984V21.4146V21.4306V21.4468V21.463V21.4792V21.4952V21.5114V21.5275V21.5437V21.5597V21.5757V21.5918V21.6078V21.6239V21.6399V21.6559V21.6718V21.6879V21.7038V21.7198V21.7357V21.7516V21.7675V21.7834V21.7993V21.8151V21.8309V21.8467V21.8626V21.8783V21.8941V21.9098V21.9256V21.9413V21.9569V21.9727V21.9883V22.0039V22.0195V22.0351V22.0507V22.0663V22.0819V22.0974V22.1128V22.1283V22.1438V22.1592V22.1747V22.1901V22.2054V22.2208V22.2361V22.2514V22.2667V22.282V22.2972V22.3123V22.3277V22.3428V22.3578V22.373V22.3882V22.4032V22.4182V22.4332V22.4483V22.4631V22.4782V22.493V22.5079V22.5228V22.5377V22.5524V22.5673V22.582V22.5967V22.6113V22.626V22.6406V22.6552V22.6698V22.6844V22.6989V22.7134V22.7278V22.7423V22.7567V22.771V22.7854V22.7997V22.814V22.8282V22.8424V22.8566V22.8707V22.8849V22.8989V22.913V22.927V22.941V22.9549V22.9689V22.9827V22.9966V23.0104V23.0242V23.0379V23.0516V23.0653V23.079V23.0926V23.1061V23.1195V23.1331V23.1465V23.1599V23.1733V23.1866V23.2V23.2133V23.2264V23.2397V23.2528V23.2659V23.2789V23.2921V23.305V23.318V23.3308V23.3437V23.3565V23.3693V23.382V23.3947V23.4074V23.4201V23.4326V23.4452V23.4577V23.4701V23.4825V23.4949V23.5073V23.5196V23.5318V23.5439V23.556V23.5681V23.5802V23.5923V23.6043V23.6161V23.6281V23.6399V23.6517V23.6633V23.675V23.6867V23.6983V23.7099V23.7214V23.7328V23.7441V23.7555V23.7669V23.7781V23.7893V23.8004V23.8117V23.8227V23.8337V23.8446V23.8556V23.8665V23.8773V23.8879V23.8987V23.9094V23.92V23.9305V23.941V23.9515V23.9619V23.9722V23.9824V23.9928V24.0028V24.0131V24.0231V24.0332V24.0431V24.053V24.0628V24.0727V24.0825V24.0921V24.1017V24.1113V24.1208V24.1303V24.1396V24.149V24.1583V24.1676V24.1767V24.1859V24.1949V24.2039V24.2128V24.2217V24.2306V24.2394V24.248V24.2567V24.2653V24.2738V24.2823V24.2907V24.299V24.3073V24.3155V24.3237V24.3318V24.3399V24.3477V24.3558V24.3635V24.3714V24.3791V24.3867V24.3943V24.4018V24.4093V24.4167V24.424V24.4313V24.4384V24.4456V24.4527V24.4597V24.4667V24.4736V24.4803V24.4872V24.4937V24.5004V24.507V24.5134V24.5198V24.5261V24.5324V24.5386V24.5448V24.5507V24.5569V24.5627V24.5685V24.5744V24.5801V24.5857V24.5913V24.5968V24.6022V24.6076V24.6129V24.6181V24.6232V24.6283V24.6333V24.6382V24.6431V24.6479V24.6525V24.6572V24.6617V24.6662V24.6706V24.675V24.6792V24.6834V24.6875V24.6915V24.6955V24.6993V24.7031V24.7069V24.7106V24.7141V24.7176V24.7211V24.7244V24.7276V24.7308V24.7339V24.737V24.7399V24.7428V24.7456V24.7483V24.751V24.7534V24.7559V24.7583V24.7606V24.7629V24.765V24.767V24.7691V24.7709V24.7728V24.7746V24.7762V24.7778V24.7793V24.782V24.7844V24.7864V24.7882V24.7901V24.7915C18.9584 25.5969 18.3055 26.25 17.5 26.25C16.6946 26.25 16.0417 25.5971 16.0417 24.7917V24.7901V24.7882V24.7864V24.7844V24.782V24.7793V24.7778V24.7762V24.7746V24.7728V24.7709V24.7691V24.767V24.765V24.7629V24.7606V24.7583V24.7559V24.7534V24.751V24.7483V24.7456V24.7428V24.7399V24.737V24.7339V24.7308V24.7276V24.7244V24.7211V24.7176V24.7141V24.7106V24.7069V24.7031V24.6993V24.6955V24.6915V24.6875V24.6834V24.6792V24.675V24.6706V24.6662V24.6617V24.6572V24.6525V24.6479V24.6431V24.6382V24.6333V24.6283V24.6232V24.6181V24.6129V24.6076V24.6022V24.5968V24.5913V24.5857V24.5801V24.5744V24.5685V24.5627V24.5569V24.5507V24.5448V24.5386V24.5324V24.5261V24.5198V24.5134V24.507V24.5004V24.4937V24.4872V24.4803V24.4736V24.4667V24.4597V24.4527V24.4456V24.4384V24.4313V24.424V24.4167V24.4093V24.4018V24.3943V24.3867V24.3791V24.3714V24.3635V24.3558V24.3477V24.3399V24.3318V24.3237V24.3155V24.3073V24.299V24.2907V24.2823V24.2738V24.2653V24.2567V24.248V24.2394V24.2306V24.2217V24.2128V24.2039V24.1949V24.1859V24.1767V24.1676V24.1583V24.149V24.1396V24.1303V24.1208V24.1113V24.1017V24.0921V24.0825V24.0727V24.0628V24.053V24.0431V24.0332V24.0231V24.0131V24.0028V23.9928V23.9824V23.9722V23.9619V23.9515V23.941V23.9305V23.92V23.9094V23.8987V23.8879V23.8773V23.8665V23.8556V23.8446V23.8337V23.8227V23.8117V23.8004V23.7893V23.7781V23.7669V23.7555V23.7441V23.7328V23.7214V23.7099V23.6983V23.6867V23.675V23.6633V23.6517V23.6399V23.6281V23.6161V23.6043V23.5923V23.5802V23.5681V23.556V23.5439V23.5318V23.5196V23.5073V23.4949V23.4825V23.4701V23.4577V23.4452V23.4326V23.4201V23.4074V23.3947V23.382V23.3693V23.3565V23.3437V23.3308V23.318V23.305V23.2921V23.2789V23.2659V23.2528V23.2397V23.2264V23.2133V23.2V23.1866V23.1733V23.1599V23.1465V23.1331V23.1195V23.1061V23.0926V23.079V23.0653V23.0516V23.0379V23.0242V23.0104V22.9966V22.9827V22.9689V22.9549V22.941V22.927V22.913V22.8989V22.8849V22.8707V22.8566V22.8424V22.8282V22.814V22.7997V22.7854V22.771V22.7567V22.7423V22.7278V22.7134V22.6989V22.6844V22.6698V22.6552V22.6406V22.626V22.6113V22.5967V22.582V22.5673V22.5524V22.5377V22.5228V22.5079V22.493V22.4782V22.4631V22.4483V22.4332V22.4182V22.4032V22.3882V22.373V22.3578V22.3428V22.3277V22.3123V22.2972V22.282V22.2667V22.2514V22.2361V22.2208V22.2054V22.1901V22.1747V22.1592V22.1438V22.1283V22.1128V22.0974V22.0819V22.0663V22.0507V22.0351V22.0195V22.0039V21.9883V21.9727V21.9569V21.9413V21.9256V21.9098V21.8941V21.8783V21.8626V21.8467V21.8309V21.8151V21.7993V21.7834V21.7675V21.7516V21.7357V21.7198V21.7038V21.6879V21.6718V21.6559V21.6399V21.6239V21.6078V21.5918V21.5757V21.5597V21.5437V21.5275V21.5114V21.4952V21.4792V21.463V21.4468V21.4306V21.4146V21.3984V21.3821V21.3659V21.3497V21.3335V21.3173V21.301V21.2848V21.2685V21.2523V21.2359V21.2196V21.2034V21.1871V21.1708V21.1544V21.1381V21.1218V21.1054V21.0891V21.0728V21.0564V21.0401V21.0238V21.0073V20.9909V20.9746V20.9583V20.9418V20.9255V20.909V20.8927V20.8762V20.8598V20.8434V20.827V20.8106V20.7942V20.7777V20.7614V20.7449V20.7286V20.7121V20.6956V20.6793V20.6628V20.6465V20.63V20.6135V20.5972V20.5807V20.5644V20.5479V20.5316V20.5151V20.4986V20.4823V20.4659V20.4495V20.4331V20.4167V20.4003V20.3838V20.3675V20.3512V20.3347V20.3184V20.302V20.2857V20.2694V20.253V20.2366V20.2202V20.2039V20.1876V20.1714V20.155V20.1387V20.1224V20.1062V20.0898V20.0735V20.0573V20.041V20.0248V20.0086V19.9923V19.9761V19.9599V19.9437V19.9275V19.9113V19.8952V19.879V19.8629V19.8467V19.8306V19.8145V19.7985V19.7823V19.7662V19.7502V19.7342V19.7181V19.7021V19.686V19.6701V19.6541V19.6382V19.6222V19.6063V19.5904V19.5745V19.5586V19.5427V19.5268V19.511V19.4951V19.4794V19.4635V19.4477V19.432V19.4162V19.4006V19.3849V19.3691V19.3535V19.3379V19.3223V19.3066V19.2911V19.2755V19.2599V19.2444V19.2288V19.2134V19.1979V19.1825V19.1672V19.1517V19.1362V19.1209V19.1056V19.0903V19.075V19.0597V19.0445V19.0293V19.014V18.9989V18.9837V18.9687V18.9535V18.9385V18.9235V18.9084V18.8934V18.8784V18.8634V18.8485V18.8336V18.8188V18.8039V18.7892V18.7743V18.7596V18.7448V18.7301V18.7155V18.7008V18.6862V18.6716V18.657V18.6424V18.628V18.6136V18.5991V18.5847V18.5703V18.556V18.5417V18.536V18.5302V18.5245V18.5186V18.5129V18.5071V18.5013V18.4954V18.4896V18.4838V18.4779V18.4721V18.4663V18.4604V18.4545V18.4486V18.4427V18.4367V18.4308V18.4249V18.4189V18.4129V18.4069V18.4009V18.395V18.389V18.383V18.3769V18.3709V18.3648V18.3588V18.3527V18.3466V18.3406V18.3344V18.3283V18.3222V18.3161V18.3099V18.3038V18.2977V18.2914V18.2853V18.2792V18.2729V18.2668V18.2605V18.2544V18.2481V18.2418V18.2357V18.2294V18.2232V18.2169V18.2106V18.2044V18.1981V18.1918V18.1856V18.1791V18.1729V18.1666V18.1603V18.1539V18.1476V18.1412V18.1349V18.1285V18.1221V18.1158V18.1094V18.103V18.0967V18.0903V18.0839V18.0775V18.0711V18.0647V18.0582V18.0518V18.0454V18.039V18.0326V18.026V18.0196V18.0132V18.0068V18.0002V17.9938V17.9874V17.9808V17.9744V17.9678V17.9614V17.9548V17.9484V17.9419V17.9354V17.9289V17.9223V17.9159V17.9093V17.9028V17.8964V17.8898V17.8832V17.8767V17.8703V17.8637V17.8571V17.8506V17.844V17.8374V17.831V17.8245V17.8179V17.8113V17.8048V17.7982V17.7917V17.7851V17.7785V17.772V17.7654V17.7588V17.7523V17.7457V17.7392V17.7326V17.726V17.7195V17.7129V17.7063V17.6998V17.6932V17.6867V17.6801V17.6735V17.667V17.6604V17.6538V17.6471V17.6406V17.634V17.6274V17.6209V17.6143V17.6078V17.6012V17.5946V17.5881V17.5817V17.5751V17.5685V17.562V17.5554V17.5488V17.5423V17.5357V17.5292V17.5226V17.5162V17.5096V17.5031V17.4965V17.4901V17.4835V17.4769V17.4704V17.464V17.4574V17.4508V17.4444V17.4379V17.4314V17.4249V17.4185V17.4119V17.4055V17.3989V17.3925V17.3861V17.3795V17.3731V17.3667V17.3601V17.3537V17.3473V17.3409V17.3345V17.3281V17.3216V17.3152V17.3088V17.3024V17.296V17.2896V17.2831V17.2769V17.2704V17.264V17.2576V17.2513V17.2449V17.2387V17.2322V17.226V17.2196V17.2133V17.207V17.2007V17.1943V17.1881V17.1818V17.1755V17.1692V17.163V17.1567V17.1504V17.1443V17.138V17.1318V17.1256V17.1194V17.1131V17.107V17.1008V17.0946V17.0884V17.0823V17.0762V17.0701V17.0638V17.0577V17.0517V17.0456V17.0394V17.0333V17.0273V17.0212V17.0151V17.0091V17.0031V16.997V16.991V16.9851V16.9791V16.9731V16.9671V16.9611V16.9552V16.9492V16.9433V16.9374V16.9314V16.9256V16.9197V16.9137V16.9079V16.9021V16.8962V16.8904V16.8846V16.8787V16.8729V16.8672V16.8614V16.8557V16.8499V16.8442V16.8385V16.8327V16.827V16.8213V16.8157V16.8101V16.8044V16.7987V16.7931V16.7874V16.7819V16.7764V16.7708V16.7653V16.7597V16.7542V16.7487V16.7431V16.7377V16.7322V16.7268V16.7214V16.7158V16.7104V16.7051V16.6997V16.6944V16.689V16.6836V16.6784V16.673V16.6677V16.6625V16.6572V16.652V16.6467V16.6415V16.6364V16.6311V16.626V16.6208V16.6157V16.6106V16.6054V16.6003V16.5954V16.5903V16.5853V16.5802V16.5753V16.5703V16.5653V16.5604V16.5554V16.5505V16.5457V16.5407V16.5359V16.5311V16.5263V16.5214V16.5166V16.5118V16.5072V16.5023V16.4977V16.493V16.4883V16.4837V16.479V16.4743V16.4698V16.4652V16.4606V16.4561V16.4516V16.4471V16.4426V16.4382V16.4337V16.4293V16.4249V16.4205V16.4162V16.4118V16.4074V16.4032V16.3988V16.3946V16.3903V16.3861V16.3819V16.3778V16.3736V16.3695V16.3653V16.3612V16.3571V16.3532V16.3491V16.3451V16.3411V16.3371V16.3332V16.3292V16.3253V16.3215V16.3176V16.3138V16.31V16.3062V16.3024V16.2988V16.295V16.2913V16.2877V16.284V16.2804V16.2767V16.2732V16.2696V16.2661V16.2626V16.2591V16.2556V16.2522V16.2487V16.2454V16.242V16.2387V16.2355V16.2321V16.2289V16.2256V16.2223V16.2191V16.2161V16.2129V16.2098V16.2067V16.2037V16.2006V16.1976V16.1946V16.1916V16.1887V16.1857V16.183V16.1801V16.1773V16.1744V16.1716V16.169V16.1662V16.1634V16.1608V16.1582V16.1556V16.1529V16.1504V16.1478V16.1453V16.1429V16.1404V16.1381V16.1356V16.1332V16.1309V16.1286V16.1262V16.1241V16.1219V16.1197V16.1175V16.1153V16.1131V16.1111V16.109V16.107V16.1049V16.1031V16.1012V16.0991V16.0974V16.0955V16.0936V16.0918V16.0901V16.0883V16.0866V16.085V16.0834V16.0818V16.0802V16.0786V16.0771V16.0755V16.074V16.0713V16.0686V16.066V16.0635V16.0612V16.059V16.057V16.0549V16.0532V16.0514V16.0492V16.0478V16.046V16.0446V16.0428C16.0417 15.2374 16.6946 14.5833 17.5 14.5833Z" fill="#EEEEEE"/>
</svg>
