<svg width="56" height="113" viewBox="0 0 56 113" fill="none" xmlns="http://www.w3.org/2000/svg">
<path d="M48.928 61.944C49.8667 61.944 50.656 62.2853 51.296 62.968C51.9787 63.608 52.32 64.4187 52.32 65.4C52.32 65.9547 52.192 66.552 51.936 67.192C51.2533 68.7707 50.2933 70.0933 49.056 71.16C47.8187 72.2267 46.4533 72.76 44.96 72.76C43.7653 72.76 42.7413 72.3333 41.888 71.48C41.0773 70.6267 40.672 69.4747 40.672 68.024C40.672 67.2133 40.7147 66.3387 40.8 65.4C40.8853 64.7173 40.928 64.248 40.928 63.992C40.928 63.6507 40.8427 63.3947 40.672 63.224C40.544 63.0533 40.3733 62.968 40.16 62.968C39.5627 62.968 38.752 63.6933 37.728 65.144C36.704 66.552 35.68 68.4293 34.656 70.776C33.632 73.1227 32.8 75.5973 32.16 78.2C31.6907 80.248 31.1573 81.6133 30.56 82.296C29.9627 82.9787 28.9813 83.32 27.616 83.32C25.9947 83.32 24.8427 82.4667 24.16 80.76C23.52 79.0533 23.2 76.3227 23.2 72.568C23.2 67.0213 23.9893 61.752 25.568 56.76C25.952 55.5227 26.5707 54.6267 27.424 54.072C28.32 53.4747 29.5573 53.176 31.136 53.176C31.9893 53.176 32.5867 53.2827 32.928 53.496C33.2693 53.7093 33.44 54.1147 33.44 54.712C33.44 55.3947 33.12 56.9307 32.48 59.32C32.0533 61.0267 31.712 62.52 31.456 63.8C31.2 65.08 30.9867 66.6587 30.816 68.536C32.224 64.8667 33.8027 61.88 35.552 59.576C37.3013 57.272 39.008 55.6293 40.672 54.648C42.336 53.6667 43.8507 53.176 45.216 53.176C46.4533 53.176 47.392 53.5387 48.032 54.264C48.7147 54.9467 49.056 55.9707 49.056 57.336C49.056 58.1467 48.8213 59.6827 48.352 61.944H48.928Z" fill="#201E43"/>
<path d="M25.768 55.288C26.8347 55.288 27.5813 55.4587 28.008 55.8C28.4773 56.0987 28.712 56.7173 28.712 57.656C28.712 58.168 28.6907 58.5733 28.648 58.872C28.4773 60.1947 27.944 63.608 27.048 69.112C26.408 72.824 26.0027 75.2773 25.832 76.472C24.2107 87.48 22.0133 96.1627 19.24 102.52C16.5093 108.92 12.84 112.12 8.232 112.12C6.056 112.12 4.28533 111.437 2.92 110.072C1.55467 108.749 0.872 107 0.872 104.824C0.872 101.795 2.06667 98.5307 4.456 95.032C6.84533 91.576 11.3253 87.3093 17.896 82.232L18.28 79.736C17.5547 80.888 16.5947 81.784 15.4 82.424C14.248 83.0213 13.096 83.32 11.944 83.32C9.29867 83.32 7.18667 82.36 5.608 80.44C4.02933 78.52 3.24 76.0027 3.24 72.888C3.24 69.4747 4.02933 66.2533 5.608 63.224C7.18667 60.152 9.27733 57.6987 11.88 55.864C14.5253 53.9867 17.32 53.048 20.264 53.048C21.2027 53.048 21.8213 53.24 22.12 53.624C22.4613 53.9653 22.7387 54.6053 22.952 55.544C23.7627 55.3733 24.7013 55.288 25.768 55.288ZM14.248 76.856C15.2293 76.856 16.168 76.2587 17.064 75.064C17.96 73.8693 18.6 72.1627 18.984 69.944L21.032 59C19.2827 59.0427 17.6613 59.7253 16.168 61.048C14.6747 62.328 13.48 64.0347 12.584 66.168C11.688 68.3013 11.24 70.5627 11.24 72.952C11.24 74.2747 11.496 75.256 12.008 75.896C12.5627 76.536 13.3093 76.856 14.248 76.856ZM8.936 105.912C10.0027 105.912 11.1973 104.632 12.52 102.072C13.8853 99.512 15.1867 95.4373 16.424 89.848C13.1387 92.664 10.7707 95.2027 9.32 97.464C7.86933 99.7253 7.144 101.709 7.144 103.416C7.144 104.141 7.272 104.739 7.528 105.208C7.82667 105.677 8.296 105.912 8.936 105.912Z" fill="#508C9B"/>
</svg>
