<svg width="56" height="105" viewBox="0 0 56 105" fill="none" xmlns="http://www.w3.org/2000/svg">
<path d="M48.928 53.944C49.8667 53.944 50.656 54.2853 51.296 54.968C51.9787 55.608 52.32 56.4187 52.32 57.4C52.32 57.9547 52.192 58.552 51.936 59.192C51.2533 60.7707 50.2933 62.0933 49.056 63.16C47.8187 64.2267 46.4533 64.76 44.96 64.76C43.7653 64.76 42.7413 64.3333 41.888 63.48C41.0773 62.6267 40.672 61.4747 40.672 60.024C40.672 59.2133 40.7147 58.3387 40.8 57.4C40.8853 56.7173 40.928 56.248 40.928 55.992C40.928 55.6507 40.8427 55.3947 40.672 55.224C40.544 55.0533 40.3733 54.968 40.16 54.968C39.5627 54.968 38.752 55.6933 37.728 57.144C36.704 58.552 35.68 60.4293 34.656 62.776C33.632 65.1227 32.8 67.5973 32.16 70.2C31.6907 72.248 31.1573 73.6133 30.56 74.296C29.9627 74.9787 28.9813 75.32 27.616 75.32C25.9947 75.32 24.8427 74.4667 24.16 72.76C23.52 71.0533 23.2 68.3227 23.2 64.568C23.2 59.0213 23.9893 53.752 25.568 48.76C25.952 47.5227 26.5707 46.6267 27.424 46.072C28.32 45.4747 29.5573 45.176 31.136 45.176C31.9893 45.176 32.5867 45.2827 32.928 45.496C33.2693 45.7093 33.44 46.1147 33.44 46.712C33.44 47.3947 33.12 48.9307 32.48 51.32C32.0533 53.0267 31.712 54.52 31.456 55.8C31.2 57.08 30.9867 58.6587 30.816 60.536C32.224 56.8667 33.8027 53.88 35.552 51.576C37.3013 49.272 39.008 47.6293 40.672 46.648C42.336 45.6667 43.8507 45.176 45.216 45.176C46.4533 45.176 47.392 45.5387 48.032 46.264C48.7147 46.9467 49.056 47.9707 49.056 49.336C49.056 50.1467 48.8213 51.6827 48.352 53.944H48.928Z" fill="#EEEEEE"/>
<path d="M25.768 47.288C26.8347 47.288 27.5813 47.4587 28.008 47.8C28.4773 48.0987 28.712 48.7173 28.712 49.656C28.712 50.168 28.6907 50.5733 28.648 50.872C28.4773 52.1947 27.944 55.608 27.048 61.112C26.408 64.824 26.0027 67.2773 25.832 68.472C24.2107 79.48 22.0133 88.1627 19.24 94.52C16.5093 100.92 12.84 104.12 8.232 104.12C6.056 104.12 4.28533 103.437 2.92 102.072C1.55467 100.749 0.872 99 0.872 96.824C0.872 93.7947 2.06667 90.5307 4.456 87.032C6.84533 83.576 11.3253 79.3093 17.896 74.232L18.28 71.736C17.5547 72.888 16.5947 73.784 15.4 74.424C14.248 75.0213 13.096 75.32 11.944 75.32C9.29867 75.32 7.18667 74.36 5.608 72.44C4.02933 70.52 3.24 68.0027 3.24 64.888C3.24 61.4747 4.02933 58.2533 5.608 55.224C7.18667 52.152 9.27733 49.6987 11.88 47.864C14.5253 45.9867 17.32 45.048 20.264 45.048C21.2027 45.048 21.8213 45.24 22.12 45.624C22.4613 45.9653 22.7387 46.6053 22.952 47.544C23.7627 47.3733 24.7013 47.288 25.768 47.288ZM14.248 68.856C15.2293 68.856 16.168 68.2587 17.064 67.064C17.96 65.8693 18.6 64.1627 18.984 61.944L21.032 51C19.2827 51.0427 17.6613 51.7253 16.168 53.048C14.6747 54.328 13.48 56.0347 12.584 58.168C11.688 60.3013 11.24 62.5627 11.24 64.952C11.24 66.2747 11.496 67.256 12.008 67.896C12.5627 68.536 13.3093 68.856 14.248 68.856ZM8.936 97.912C10.0027 97.912 11.1973 96.632 12.52 94.072C13.8853 91.512 15.1867 87.4373 16.424 81.848C13.1387 84.664 10.7707 87.2027 9.32 89.464C7.86933 91.7253 7.144 93.7093 7.144 95.416C7.144 96.1413 7.272 96.7387 7.528 97.208C7.82667 97.6773 8.296 97.912 8.936 97.912Z" fill="#508C9B"/>
</svg>
