<svg width="50" height="50" viewBox="0 0 50 50" fill="none" xmlns="http://www.w3.org/2000/svg">
<path fill-rule="evenodd" clip-rule="evenodd" d="M22.9531 39.5833C22.2085 39.5833 21.5733 39.0306 21.4521 38.2771C21.3404 37.6675 20.9125 37.1694 20.3369 36.9792C19.8679 36.814 19.4093 36.6192 18.9638 36.3958C18.4336 36.1177 17.7977 36.1594 17.3063 36.5042C16.7116 36.9427 15.8946 36.8748 15.3766 36.3437L13.3616 34.2771C12.8193 33.7208 12.7488 32.844 13.195 32.2042C13.5391 31.6885 13.5887 31.0238 13.325 30.4604C13.1513 30.0692 12.998 29.6685 12.866 29.2604C12.6768 28.6173 12.1546 28.1356 11.5111 28.0104C10.7351 27.8833 10.1623 27.1998 10.1563 26.3937V23.8083C10.1521 22.8794 10.8064 22.0848 11.7 21.9333C12.378 21.801 12.9441 21.3248 13.2031 20.6687C13.2803 20.484 13.3616 20.3007 13.4469 20.1188C13.7914 19.4384 13.7439 18.619 13.323 17.9854C12.7967 17.2352 12.8775 16.2044 13.5139 15.55L14.9947 14.0313C15.725 13.2819 16.8769 13.1849 17.7166 13.8021L17.7633 13.8354C18.3903 14.2683 19.1882 14.3466 19.8839 14.0438C20.6282 13.769 21.1769 13.113 21.3281 12.3167L21.3485 12.2458C21.5156 11.1916 22.4033 10.4171 23.4448 10.4167H25.2323C26.3017 10.4162 27.2144 11.2095 27.3894 12.2917L27.4219 12.4375C27.5654 13.2004 28.0856 13.8317 28.795 14.1042C29.4787 14.4051 30.265 14.3265 30.8792 13.8958L30.9806 13.8208C31.8421 13.184 33.0267 13.282 33.7777 14.0521L35.1406 15.4521C35.8237 16.1566 35.9096 17.2644 35.3437 18.0708C34.9004 18.7448 34.844 19.6109 35.1954 20.3396L35.2829 20.5479C35.5675 21.2594 36.1835 21.775 36.92 21.9188C37.8827 22.0798 38.5906 22.931 38.5937 23.9313V26.25C38.5935 27.1321 37.9715 27.8846 37.1231 28.0292C36.4254 28.1665 35.8571 28.6846 35.6423 29.3792C35.5475 29.6569 35.4419 29.9348 35.3254 30.2125C35.0544 30.8229 35.1146 31.5342 35.484 32.0875C35.9712 32.7829 35.8956 33.7381 35.3052 34.3438L33.4142 36.2854C32.8733 36.84 32.0204 36.9115 31.3992 36.4542C30.8804 36.0906 30.2085 36.0506 29.6523 36.35C29.2558 36.5515 28.849 36.7302 28.4335 36.8854C27.8525 37.091 27.4242 37.601 27.3123 38.2208C27.1937 39.0006 26.5419 39.5775 25.7725 39.5833H22.9531Z" stroke="#EEEEEE" stroke-width="2" stroke-linecap="round" stroke-linejoin="round"/>
<path fill-rule="evenodd" clip-rule="evenodd" d="M29.114 25C29.114 27.6844 26.9923 29.8604 24.375 29.8604C21.7577 29.8604 19.6361 27.6844 19.6361 25C19.6361 22.3156 21.7577 20.1396 24.375 20.1396C26.9923 20.1396 29.114 22.3156 29.114 25Z" stroke="#EEEEEE" stroke-width="2" stroke-linecap="round" stroke-linejoin="round"/>
</svg>
