<svg width="50" height="50" viewBox="0 0 50 50" fill="none" xmlns="http://www.w3.org/2000/svg">
<path d="M8.33333 25H6.25V16.6667C6.25 14.3655 8.11548 12.5 10.4167 12.5H18.75M8.33333 25V37.5C8.33333 39.8012 10.1988 41.6667 12.5 41.6667H37.5C39.8012 41.6667 41.6667 39.8012 41.6667 37.5V25M8.33333 25H20.8333M18.75 12.5V10.4167C18.75 8.11548 20.6155 6.25 22.9167 6.25H27.0833C29.3846 6.25 31.25 8.11548 31.25 10.4167V12.5M18.75 12.5H31.25M41.6667 25H43.75V16.6667C43.75 14.3655 41.8846 12.5 39.5833 12.5H31.25M41.6667 25H29.1667M20.8333 25V20.8333H29.1667V25M20.8333 25V29.1667H29.1667V25" stroke="#EEEEEE" stroke-width="2" stroke-linecap="round" stroke-linejoin="round"/>
</svg>
